<mxfile host="Electron" agent="Mozilla/5.0 (Windows NT 10.0; Win64; x64) AppleWebKit/537.36 (KHTML, like Gecko) draw.io/24.7.5 Chrome/126.0.6478.183 Electron/31.3.0 Safari/537.36" version="24.7.5">
  <diagram name="Methods" id="iBYcIc8HGlkRS3KNPkCv">
    <mxGraphModel dx="1038" dy="440" grid="1" gridSize="10" guides="1" tooltips="1" connect="1" arrows="1" fold="1" page="1" pageScale="1" pageWidth="850" pageHeight="1100" math="0" shadow="0">
      <root>
        <mxCell id="0" />
        <mxCell id="1" parent="0" />
        <mxCell id="VZKoo9HKzc9Uudtsrmzl-1" value="&lt;font style=&quot;font-size: 22px;&quot;&gt;&lt;b&gt;Imperative Approach&lt;/b&gt;&lt;/font&gt;" style="rounded=0;whiteSpace=wrap;html=1;fillColor=#ffe6cc;strokeColor=#d79b00;" parent="1" vertex="1">
          <mxGeometry x="120" y="160" width="240" height="90" as="geometry" />
        </mxCell>
        <mxCell id="VZKoo9HKzc9Uudtsrmzl-2" value="&lt;font style=&quot;font-size: 22px;&quot;&gt;&lt;b&gt;Declarative Approach&lt;/b&gt;&lt;/font&gt;" style="rounded=0;whiteSpace=wrap;html=1;fillColor=#d5e8d4;strokeColor=#82b366;" parent="1" vertex="1">
          <mxGeometry x="460" y="160" width="240" height="90" as="geometry" />
        </mxCell>
        <mxCell id="VZKoo9HKzc9Uudtsrmzl-3" value="&lt;div style=&quot;text-align: justify;&quot;&gt;&lt;span style=&quot;background-color: initial; font-size: 18px;&quot;&gt;Run commands step by step&lt;/span&gt;&lt;br&gt;&lt;/div&gt;&lt;font style=&quot;font-size: 18px;&quot;&gt;&lt;div style=&quot;text-align: justify;&quot;&gt;&lt;span style=&quot;background-color: initial;&quot;&gt;&amp;nbsp;to achieve the &lt;b&gt;desired result&lt;/b&gt;&lt;/span&gt;&lt;/div&gt;&lt;/font&gt;" style="text;html=1;align=center;verticalAlign=middle;whiteSpace=wrap;rounded=0;" parent="1" vertex="1">
          <mxGeometry x="110" y="280" width="250" height="30" as="geometry" />
        </mxCell>
        <mxCell id="VZKoo9HKzc9Uudtsrmzl-4" value="&lt;div style=&quot;text-align: justify;&quot;&gt;&lt;span style=&quot;font-size: 18px; background-color: initial;&quot;&gt;Define the desired setup in a &lt;b&gt;configuration file&lt;/b&gt;, and let the system apply it automatically, to have &lt;b&gt;actual state&lt;/b&gt;&lt;/span&gt;&lt;/div&gt;" style="text;html=1;align=center;verticalAlign=middle;whiteSpace=wrap;rounded=0;" parent="1" vertex="1">
          <mxGeometry x="460" y="284" width="260" height="40" as="geometry" />
        </mxCell>
      </root>
    </mxGraphModel>
  </diagram>
</mxfile>
